<svg xmlns="http://www.w3.org/2000/svg" x="0" y="0" width="64" height="64" viewBox="0 0 64 64" role="img">
	<title>Motion Start</title>
	<defs>
		<linearGradient id="ms-fill" gradientUnits="userSpaceOnUse" x1="0" y1="64" x2="64" y2="0">
			<stop offset="0.31" stop-color="#7aa9e6" />
			<stop offset="0.55" stop-color="#aa7aca" />
			<stop offset="0.78" stop-color="#a7c088" />
		</linearGradient>
		<clipPath id="ms-clip">
			<rect x="0" y="0" width="64" height="64" rx="14" />
		</clipPath>
	</defs>
	<g clip-path="url(#ms-clip)">
		<rect x="0" y="0" width="64" height="64" fill="url(#ms-fill)" />
		<g transform="translate(28 33) rotate(9) scale(0.76) skewX(-13) translate(-18 -27)" fill="none" stroke="#ccd0d8" stroke-width="7.8" stroke-linecap="butt" stroke-linejoin="miter" stroke-miterlimit="2.6">
			<path d="M 0 48 L 0 0 L 12 42 L 24 0 L 24 48" />
			<path d="M 22.4 8.4 C 22.4 3.2 17.8 0 11.6 0 C 5.5 0 1 3 1 7.8 C 1 12 4 14.6 9.7 16 C 17.2 17.8 22.4 20.6 22.4 26.2 C 22.4 32.4 17.4 36 11.2 36 C 5 36 0 32 0 26.4" transform="translate(24 15)" />
		</g>
	</g>
</svg>
